<?xml version="1.0" standalone="no"?><!DOCTYPE svg PUBLIC "-//W3C//DTD SVG 1.1//EN" "http://www.w3.org/Graphics/SVG/1.1/DTD/svg11.dtd"><svg t="1504494157995" class="icon" style="" viewBox="0 0 1024 1024" version="1.1" xmlns="http://www.w3.org/2000/svg" p-id="2326" xmlns:xlink="http://www.w3.org/1999/xlink" width="16" height="16"><defs><style type="text/css"></style></defs><path d="M512 62c-248.528 0-450 201.472-450 450s201.472 450 450 450c219.134 0 405.353-157.711 443.103-371.105 1.756-9.926 3.181-19.929 4.268-29.996 1.303-12.053-7.411-22.881-19.465-24.183-12.053-1.303-22.881 7.411-24.185 19.465-0.983 9.085-2.268 18.112-3.852 27.068-34.055 192.511-202.125 334.851-399.873 334.851-224.281 0-406.098-181.817-406.098-406.098 0-224.281 181.815-406.098 406.098-406.098 163.515 0 309.114 97.529 372.914 245.042 4.813 11.127 17.735 16.247 28.862 11.434 11.127-4.813 16.247-17.735 11.434-28.862-70.69-163.445-232.028-271.516-413.209-271.516zM904.381 369.835l21.952-21.952h-227.748c-12.124 0-21.952 9.828-21.952 21.952s9.828 21.952 21.952 21.952h227.748c12.124 0 21.952-9.828 21.952-21.952v-241.98c0-12.124-9.828-21.952-21.952-21.952s-21.952 9.828-21.952 21.952v241.98z" p-id="2327" fill="#999999"></path></svg>